<svg width="70" height="70" viewBox="0 0 70 70" fill="none" xmlns="http://www.w3.org/2000/svg">
<rect width="70" height="70" rx="10" fill="#242424"/>
<mask id="mask0_195_393" style="mask-type:alpha" maskUnits="userSpaceOnUse" x="11" y="10" width="48" height="49">
<rect x="11" y="10.2" width="48" height="48" fill="#D9D9D9"/>
</mask>
<g mask="url(#mask0_195_393)">
<path d="M35 54.2C31.4667 54.2 28.5833 53.6416 26.35 52.525C24.1167 51.4083 23 49.9666 23 48.2C23 47.0333 23.4833 46.0166 24.45 45.15C25.4167 44.2833 26.75 43.6 28.45 43.1L29.6 46.9C29.0333 47.0666 28.5167 47.275 28.05 47.525C27.5833 47.775 27.2667 48 27.1 48.2C27.5333 48.7333 28.5333 49.2 30.1 49.6C31.6667 50 33.3 50.2 35 50.2C36.7 50.2 38.3417 50 39.925 49.6C41.5083 49.2 42.5167 48.7333 42.95 48.2C42.7833 48 42.4667 47.775 42 47.525C41.5333 47.275 41.0167 47.0666 40.45 46.9L41.6 43.1C43.3 43.6 44.625 44.2833 45.575 45.15C46.525 46.0166 47 47.0333 47 48.2C47 49.9666 45.8833 51.4083 43.65 52.525C41.4167 53.6416 38.5333 54.2 35 54.2ZM35 48.2C34.6333 48.2 34.3 48.0916 34 47.875C33.7 47.6583 33.4833 47.3666 33.35 47C32.5833 44.6333 31.6167 42.65 30.45 41.05C29.2833 39.45 28.15 37.9166 27.05 36.45C25.9833 34.9833 25.0583 33.4666 24.275 31.9C23.4917 30.3333 23.1 28.4 23.1 26.1C23.1 22.7666 24.25 19.95 26.55 17.65C28.85 15.35 31.6667 14.2 35 14.2C38.3333 14.2 41.15 15.35 43.45 17.65C45.75 19.95 46.9 22.7666 46.9 26.1C46.9 28.4 46.5167 30.3333 45.75 31.9C44.9833 33.4666 44.05 34.9833 42.95 36.45C41.8833 37.9166 40.7583 39.45 39.575 41.05C38.3917 42.65 37.4167 44.6333 36.65 47C36.5167 47.3666 36.3 47.6583 36 47.875C35.7 48.0916 35.3667 48.2 35 48.2ZM35 30.35C36.1667 30.35 37.1667 29.9333 38 29.1C38.8333 28.2666 39.25 27.2666 39.25 26.1C39.25 24.9333 38.8333 23.9333 38 23.1C37.1667 22.2666 36.1667 21.85 35 21.85C33.8333 21.85 32.8333 22.2666 32 23.1C31.1667 23.9333 30.75 24.9333 30.75 26.1C30.75 27.2666 31.1667 28.2666 32 29.1C32.8333 29.9333 33.8333 30.35 35 30.35Z" fill="white"/>
</g>
</svg>
